<?xml version="1.0" encoding="UTF-8" standalone="no"?>
<!-- Created with Inkscape (http://www.inkscape.org/) -->
<svg
   xmlns:dc="http://purl.org/dc/elements/1.1/"
   xmlns:cc="http://creativecommons.org/ns#"
   xmlns:rdf="http://www.w3.org/1999/02/22-rdf-syntax-ns#"
   xmlns:svg="http://www.w3.org/2000/svg"
   xmlns="http://www.w3.org/2000/svg"
   xmlns:sodipodi="http://sodipodi.sourceforge.net/DTD/sodipodi-0.dtd"
   xmlns:inkscape="http://www.inkscape.org/namespaces/inkscape"
   id="svg2"
   sodipodi:version="0.32"
   inkscape:version="0.46"
   width="16"
   height="16"
   version="1.0"
   sodipodi:docname="favicon.svg"
   inkscape:output_extension="org.inkscape.output.svg.inkscape"
   style="display:inline">
  <metadata
     id="metadata7">
    <rdf:RDF>
      <cc:Work
         rdf:about="">
        <dc:format>image/svg+xml</dc:format>
        <dc:type
           rdf:resource="http://purl.org/dc/dcmitype/StillImage" />
      </cc:Work>
    </rdf:RDF>
  </metadata>
  <defs
     id="defs5">
    <inkscape:perspective
       sodipodi:type="inkscape:persp3d"
       inkscape:vp_x="0 : 526.18109 : 1"
       inkscape:vp_y="0 : 1000 : 0"
       inkscape:vp_z="744.09448 : 526.18109 : 1"
       inkscape:persp3d-origin="372.04724 : 350.78739 : 1"
       id="perspective9" />
    <inkscape:perspective
       id="perspective2470"
       inkscape:persp3d-origin="372.04724 : 350.78739 : 1"
       inkscape:vp_z="744.09448 : 526.18109 : 1"
       inkscape:vp_y="0 : 1000 : 0"
       inkscape:vp_x="0 : 526.18109 : 1"
       sodipodi:type="inkscape:persp3d" />
  </defs>
  <sodipodi:namedview
     inkscape:window-height="825"
     inkscape:window-width="1439"
     inkscape:pageshadow="2"
     inkscape:pageopacity="0.0"
     guidetolerance="10.0"
     gridtolerance="10.0"
     objecttolerance="10.0"
     borderopacity="1.0"
     bordercolor="#666666"
     pagecolor="#ffffff"
     id="base"
     showgrid="false"
     inkscape:zoom="19.375"
     inkscape:cx="23.401519"
     inkscape:cy="6.2394002"
     inkscape:window-x="1"
     inkscape:window-y="49"
     inkscape:current-layer="layer8" />
  <g
     inkscape:groupmode="layer"
     id="layer4"
     inkscape:label="rop"
     style="display:inline">
    <path
       style="opacity:1;fill:none;fill-opacity:1;fill-rule:nonzero;stroke:#000000;stroke-width:0.10847072;stroke-linecap:butt;stroke-linejoin:miter;stroke-miterlimit:4;stroke-dasharray:none;stroke-opacity:1"
       d="M 4.8999167,9.3381145 C 5.5371315,12.053796 5.5929909,12.965568 5.6677759,14.004331"
       id="path3271"
       sodipodi:nodetypes="cc" />
  </g>
  <g
     inkscape:groupmode="layer"
     id="layer8"
     inkscape:label="flag-green"
     style="display:inline">
    <path
       style="opacity:1;fill:#00923f;fill-opacity:1;fill-rule:nonzero;stroke:none;stroke-width:1;stroke-linecap:butt;stroke-linejoin:miter;stroke-miterlimit:4;stroke-dasharray:none;stroke-opacity:1"
       d="M 4.8373986,9.4036316 C 5.5460066,8.6322678 7.4852988,7.2857188 8.0127183,7.0127693 L 10.03128,5.4914392 C 10.81627,4.5372187 11.962597,3.7514653 12.933823,3.3132375 C 13.923913,4.7214716 14.703839,6.4525174 15.118344,7.7137987 C 15.416732,8.6982328 15.768794,9.6826669 15.900968,10.667101 C 14.485172,9.5614094 13.469661,9.3077589 12.947666,9.3528811 C 11.987362,9.3687351 11.00585,9.7731589 10.481658,9.7515775 C 9.4790333,9.7510352 8.9453231,9.3880587 8.2962145,9.3187335 C 7.6086423,9.2500631 6.5923365,9.8917356 4.8373986,9.4036316 z"
       id="path3285"
       sodipodi:nodetypes="cccccccccc" />
  </g>
  <g
     inkscape:groupmode="layer"
     id="layer5"
     inkscape:label="flag-orange"
     style="display:inline">
    <path
       style="opacity:1;fill:#e67817;fill-opacity:1;fill-rule:nonzero;stroke:none;stroke-width:1;stroke-linecap:butt;stroke-linejoin:miter;stroke-miterlimit:4;stroke-dasharray:none;stroke-opacity:1"
       d="M 1.8115701,2.5529226 C 1.9598725,2.6962077 2.2568493,2.7645527 2.6416705,2.7617527 C 3.4178285,2.7493356 4.4485843,2.3581269 5.6227165,2.4119628 C 6.2093072,2.434627 6.591494,2.4233174 7.335182,2.7943761 C 7.3416976,2.7976277 7.3594671,2.7938033 7.3664372,2.7915968 C 9.5149382,2.1116766 12.816747,3.2421289 12.933968,3.3133321 C 11.922456,3.7871599 10.85807,4.5384842 10.044692,5.4817635 L 7.8310938,7.1576237 C 6.7822405,7.7477574 5.820865,8.4827237 4.9294868,9.3287542 L 4.837502,9.4037173 C 4.1958423,6.5481403 2.9376188,4.4100413 1.9610148,3.10306 C 1.5996512,2.6543582 1.6968541,2.5731507 1.8115701,2.5529226 z"
       id="path3274"
       sodipodi:nodetypes="cccssccccccc" />
  </g>
  <g
     inkscape:groupmode="layer"
     id="layer6"
     inkscape:label="center-white dimond shape"
     style="display:inline">
    <rect
       style="opacity:1;fill:#ffffff;fill-opacity:1;fill-rule:nonzero;stroke:none;stroke-width:1.23214722;stroke-linecap:butt;stroke-linejoin:miter;stroke-miterlimit:4;stroke-dasharray:none;stroke-opacity:1"
       id="rect3277"
       width="2.6338508"
       height="2.6251259"
       x="10.351577"
       y="0.20279311"
       transform="matrix(0.8850565,0.4654836,-0.8311684,0.5560207,0,0)" />
  </g>
  <g
     inkscape:groupmode="layer"
     id="layer7"
     inkscape:label="AHB"
     style="display:inline">
    <path
       style="font-size:6.74482203px;font-style:normal;font-variant:normal;font-weight:normal;font-stretch:normal;fill:#183883;fill-opacity:1;stroke:none;stroke-width:1px;stroke-linecap:butt;stroke-linejoin:miter;stroke-opacity:1;font-family:Yanone Kaffeesatz;-inkscape-font-specification:Yanone Kaffeesatz"
       d="M 8.6742539,6.702293 L 8.4825382,6.702293 L 8.4063296,6.5040274 L 8.0574287,6.5040274 L 7.9853866,6.702293 L 7.7984349,6.702293 L 8.1384033,5.8294501 L 8.3247613,5.8294501 L 8.6742539,6.702293 M 8.3497668,6.3569659 L 8.2294967,6.0330744 L 8.111609,6.3569659 L 8.3497668,6.3569659 M 8.7713015,6.702293 L 8.7713015,5.8294501 L 8.9475379,5.8294501 L 8.9475379,6.1729904 L 9.2928639,6.1729904 L 9.2928639,5.8294501 L 9.4691003,5.8294501 L 9.4691003,6.702293 L 9.2928639,6.702293 L 9.2928639,6.3206485 L 8.9475379,6.3206485 L 8.9475379,6.702293 L 8.7713015,6.702293 M 9.6524812,5.8294501 L 10.00138,5.8294501 C 10.070445,5.8294512 10.121845,5.8324283 10.155584,5.8383806 C 10.189721,5.8439394 10.220085,5.855847 10.24668,5.8741053 C 10.273671,5.8923637 10.296097,5.9167755 10.313958,5.9473378 C 10.331821,5.9775047 10.340751,6.0114425 10.340751,6.0491494 C 10.340751,6.0900336 10.329638,6.1275433 10.30741,6.1616775 C 10.285578,6.1958145 10.255809,6.2214165 10.218103,6.2384836 C 10.271288,6.253964 10.312173,6.2803589 10.340751,6.3176704 C 10.369328,6.3549818 10.383619,6.3988422 10.383621,6.4492515 C 10.383619,6.4889445 10.374291,6.5276454 10.355638,6.5653532 C 10.337377,6.6026638 10.312173,6.6326324 10.280021,6.6552573 C 10.248267,6.6774849 10.208972,6.6911792 10.162134,6.6963387 C 10.13276,6.6995141 10.061909,6.7014992 9.9495791,6.702293 L 9.6524812,6.702293 L 9.6524812,5.8294501 M 9.8287149,5.9747258 L 9.8287149,6.1765631 L 9.9442222,6.1765631 C 10.012891,6.1765641 10.055559,6.1755711 10.07223,6.1735861 C 10.102397,6.1700142 10.126015,6.1596943 10.14308,6.1426263 C 10.160547,6.1251618 10.16928,6.1023377 10.16928,6.0741559 C 10.16928,6.0471653 10.161736,6.0253342 10.146654,6.0086627 C 10.131967,5.9915956 10.109939,5.9812757 10.080565,5.9777029 C 10.063101,5.9757179 10.012891,5.9747267 9.9299322,5.9747258 L 9.8287149,5.9747258 M 9.8287149,6.3218378 L 9.8287149,6.5552306 L 9.9918521,6.5552306 C 10.05536,6.5552315 10.095649,6.5534456 10.112716,6.5498729 C 10.138915,6.5451098 10.160149,6.5335987 10.176424,6.5153404 C 10.193094,6.4966846 10.201429,6.4718765 10.201429,6.4409167 C 10.201429,6.4147199 10.195079,6.3924914 10.182379,6.3742321 C 10.169676,6.3559748 10.15122,6.3426768 10.127007,6.334342 C 10.10319,6.3260061 10.051194,6.3218387 9.9710131,6.3218378 L 9.8287149,6.3218378"
       id="text3280" />
  </g>
  <g
     inkscape:groupmode="layer"
     id="layer2"
     inkscape:label="top circle">
    <path
       sodipodi:type="arc"
       style="opacity:1;fill:none;fill-opacity:1;fill-rule:nonzero;stroke:#000000;stroke-width:6;stroke-linecap:round;stroke-linejoin:round;stroke-miterlimit:4;stroke-dasharray:none;stroke-opacity:1"
       id="path2477"
       sodipodi:cx="54.868767"
       sodipodi:cy="57.896942"
       sodipodi:rx="50.248238"
       sodipodi:ry="50.248238"
       d="M 105.117,57.896942 A 50.248238,50.248238 0 1 1 4.6205292,57.896942 A 50.248238,50.248238 0 1 1 105.117,57.896942 z"
       transform="matrix(1.8764772e-2,0,0,1.8764772e-2,9.2831797e-2,0.7616992)" />
    <path
       style="opacity:1;fill:none;fill-opacity:1;fill-rule:nonzero;stroke:#000000;stroke-width:0.10847072;stroke-linecap:round;stroke-linejoin:round;stroke-miterlimit:4;stroke-dasharray:none;stroke-opacity:1"
       d="M 1.3208198,1.3312673 L 1.816791,1.2320736"
       id="path3249" />
    <path
       style="opacity:1;fill:none;fill-opacity:1;fill-rule:nonzero;stroke:#000000;stroke-width:0.10847072;stroke-linecap:round;stroke-linejoin:round;stroke-miterlimit:4;stroke-dasharray:none;stroke-opacity:1"
       d="M 1.3469236,1.5505392 L 1.9525297,1.3939169"
       id="path3251" />
    <path
       style="opacity:1;fill:none;fill-opacity:1;fill-rule:nonzero;stroke:#000000;stroke-width:0.10847072;stroke-linecap:round;stroke-linejoin:round;stroke-miterlimit:4;stroke-dasharray:none;stroke-opacity:1"
       d="M 1.5714148,1.701941 L 1.9942964,1.6027466"
       id="path3253" />
    <path
       style="opacity:1;fill:none;fill-opacity:1;fill-rule:nonzero;stroke:#000000;stroke-width:0.10847072;stroke-linecap:round;stroke-linejoin:round;stroke-miterlimit:4;stroke-dasharray:none;stroke-opacity:1"
       d="M 1.4670012,1.8742253 L 2.0360629,1.7384859"
       id="path3257" />
    <path
       style="opacity:1;fill:none;fill-opacity:1;fill-rule:nonzero;stroke:#000000;stroke-width:0.10847072;stroke-linecap:round;stroke-linejoin:round;stroke-miterlimit:4;stroke-dasharray:none;stroke-opacity:1"
       d="M 0.70999258,1.4722279 L 0.9866917,2.2762234"
       id="path3259" />
    <path
       style="opacity:1;fill:none;fill-opacity:1;fill-rule:nonzero;stroke:#000000;stroke-width:0.10847072;stroke-linecap:round;stroke-linejoin:round;stroke-miterlimit:4;stroke-dasharray:none;stroke-opacity:1"
       d="M 0.58469432,1.7802523 L 0.79874491,2.4224039"
       id="path3261" />
  </g>
  <g
     inkscape:groupmode="layer"
     id="layer3"
     inkscape:label="rod">
    <path
       style="opacity:1;fill:none;fill-opacity:1;fill-rule:nonzero;stroke:#000000;stroke-width:0.10847072;stroke-linecap:butt;stroke-linejoin:miter;stroke-miterlimit:4;stroke-dasharray:none;stroke-opacity:1"
       d="M 0.68120125,2.6671463 L 5.2102791,15.437732"
       id="path3264"
       sodipodi:nodetypes="cc" />
    <path
       style="opacity:1;fill:none;fill-opacity:1;fill-rule:nonzero;stroke:#000000;stroke-width:0.10847072;stroke-linecap:butt;stroke-linejoin:miter;stroke-miterlimit:4;stroke-dasharray:none;stroke-opacity:1"
       d="M 5.5026399,15.427291 L 1.0806656,2.7826358"
       id="path3266"
       sodipodi:nodetypes="cc" />
    <path
       style="opacity:1;fill:none;fill-opacity:1;fill-rule:nonzero;stroke:#000000;stroke-width:0.10847072;stroke-linecap:butt;stroke-linejoin:miter;stroke-miterlimit:4;stroke-dasharray:none;stroke-opacity:1"
       d="M 6.1500112,15.406408 L 1.6653896,2.6207928"
       id="path3268"
       sodipodi:nodetypes="cc" />
  </g>
</svg>
